<svg id="svg" version="1.1" xmlns="http://www.w3.org/2000/svg" xmlns:xlink="http://www.w3.org/1999/xlink" 
	 {% if include.width %} width="{{ include.width }}"{% endif %}{% if include.height %} height="{{ include.height }}"{% endif %}{% if include.class %} class="{{ include.class }}"{% endif %} viewBox="0 0 400 400"><g id="svgg"><path id="path0" d="M54.800 5.474 C 51.983 5.952,49.727 7.041,47.600 8.952 C 46.346 10.078,44.285 11.630,43.020 12.400 C 39.812 14.352,35.347 19.152,34.139 21.947 C 33.604 23.186,32.906 24.650,32.588 25.200 C 29.441 30.650,29.620 21.968,29.625 168.800 C 29.629 315.577,29.451 306.972,32.589 312.400 C 32.907 312.950,33.485 314.298,33.874 315.395 C 34.363 316.775,35.386 318.213,37.191 320.059 C 38.626 321.528,40.340 323.344,41.000 324.095 C 42.183 325.442,44.894 327.408,47.245 328.623 C 47.908 328.966,49.850 329.492,51.562 329.793 C 53.382 330.113,55.675 330.865,57.082 331.602 C 60.254 333.265,63.930 333.715,72.700 333.513 L 79.600 333.354 79.600 353.504 L 79.600 373.655 80.945 377.727 C 81.684 379.967,82.415 382.880,82.567 384.200 C 82.943 387.445,83.499 389.069,84.892 390.985 C 85.538 391.873,86.309 393.176,86.605 393.881 C 87.247 395.410,91.519 400.000,92.299 400.000 C 92.621 400.000,92.731 399.794,92.565 399.500 C 92.339 399.100,92.390 399.100,92.821 399.500 C 93.250 399.898,118.114 400.000,214.361 400.000 L 335.362 400.000 336.780 398.700 L 338.198 397.400 337.024 398.700 C 335.100 400.831,336.438 400.173,338.651 397.900 C 340.872 395.618,341.744 394.167,342.195 392.000 C 342.355 391.230,342.820 390.050,343.228 389.377 C 344.801 386.784,345.200 383.862,345.200 374.933 L 345.200 366.434 347.500 364.114 C 352.850 358.716,353.798 357.484,354.358 355.200 C 354.655 353.990,355.211 352.640,355.595 352.200 C 357.980 349.466,357.800 359.857,357.800 224.800 C 357.800 93.174,357.916 100.602,355.824 98.090 C 355.324 97.490,354.691 96.052,354.416 94.892 C 353.765 92.147,351.568 88.876,349.469 87.527 C 348.551 86.936,346.789 85.749,345.552 84.889 C 343.970 83.788,342.549 83.181,340.752 82.839 C 339.349 82.572,336.382 81.734,334.159 80.977 L 330.119 79.600 318.684 79.600 L 307.250 79.600 307.096 52.500 C 306.929 23.115,306.986 23.891,304.653 19.300 C 303.172 16.384,294.750 8.110,291.680 6.555 L 289.400 5.400 172.600 5.352 C 108.360 5.326,55.350 5.381,54.800 5.474 M228.132 5.900 C 197.295 5.957,146.715 5.957,115.732 5.900 C 84.750 5.843,109.980 5.797,171.800 5.797 C 233.620 5.797,258.970 5.843,228.132 5.900 M284.307 24.567 C 286.634 25.857,288.587 28.382,289.093 30.757 C 289.705 33.631,289.464 267.981,288.846 270.107 C 288.220 272.262,286.048 274.687,283.697 275.856 C 281.425 276.985,115.213 277.025,113.491 275.896 C 110.784 274.122,111.022 282.346,110.800 183.000 C 110.577 82.962,110.854 91.797,107.881 89.983 C 104.720 88.055,101.996 88.653,100.646 91.571 L 99.800 93.400 99.600 182.600 C 99.436 255.823,99.305 271.967,98.868 272.734 C 97.743 274.707,96.870 274.799,79.113 274.814 C 66.505 274.825,61.843 274.965,59.400 275.406 C 54.782 276.240,53.445 276.172,52.122 275.035 L 51.000 274.069 51.000 154.735 L 51.000 35.400 51.917 33.131 C 53.004 30.442,55.137 28.362,58.352 26.854 L 60.600 25.800 81.400 25.583 C 99.897 25.391,102.437 25.288,104.342 24.655 C 105.521 24.264,107.231 23.795,108.142 23.613 C 109.054 23.432,148.590 23.309,196.000 23.342 L 282.200 23.400 284.307 24.567 M68.874 31.203 C 62.284 32.594,60.847 40.551,66.664 43.437 C 69.112 44.651,81.105 44.564,83.450 43.314 C 89.141 40.281,88.593 33.426,82.511 31.587 C 80.558 30.996,71.113 30.730,68.874 31.203 M306.300 65.900 C 306.238 72.005,306.187 67.010,306.187 54.800 C 306.187 42.590,306.238 37.595,306.300 43.700 C 306.362 49.805,306.362 59.795,306.300 65.900 M102.476 39.610 C 99.915 41.172,99.800 41.893,99.800 56.400 C 99.800 70.961,99.933 71.733,102.710 73.332 C 105.400 74.880,109.454 72.592,110.354 69.018 C 111.183 65.723,110.930 44.524,110.037 42.559 C 108.726 39.671,104.853 38.161,102.476 39.610 M68.667 62.551 C 62.334 64.327,60.989 71.165,66.320 74.480 C 69.494 76.454,81.815 75.948,84.734 73.724 C 93.139 67.321,81.219 59.032,68.667 62.551 M69.331 93.593 C 63.081 94.921,60.899 100.666,65.176 104.530 C 68.970 107.958,81.762 107.798,85.538 104.275 C 92.323 97.945,81.724 90.959,69.331 93.593 M333.788 100.412 C 335.317 101.199,335.982 101.866,336.777 103.412 L 337.800 105.400 337.800 225.200 L 337.800 345.000 336.799 346.788 C 336.027 348.167,335.256 348.852,333.427 349.788 L 331.057 351.000 220.028 351.208 C 116.509 351.401,108.851 351.462,106.800 352.103 C 99.964 354.240,98.985 352.322,99.293 337.400 C 99.492 327.749,99.793 326.278,101.849 324.931 C 102.918 324.230,106.496 324.192,187.982 324.000 C 264.850 323.819,273.177 323.738,274.849 323.155 C 278.488 321.884,282.647 318.236,284.421 314.759 C 286.701 310.290,286.878 309.236,287.167 298.400 C 287.489 286.352,287.507 286.290,291.352 283.267 C 294.255 280.986,295.802 279.080,297.738 275.400 L 299.000 273.000 299.200 188.000 C 299.386 108.923,299.447 102.913,300.081 101.756 C 301.391 99.365,302.134 99.269,318.811 99.343 L 331.822 99.400 333.788 100.412 M357.500 282.068 C 357.443 313.600,357.397 287.920,357.397 225.000 C 357.397 162.080,357.443 136.280,357.500 167.668 C 357.556 199.055,357.556 250.535,357.500 282.068 M69.400 124.638 C 68.960 124.744,68.198 124.917,67.707 125.021 C 63.479 125.922,61.620 132.311,64.693 135.384 C 68.296 138.987,81.095 139.192,85.230 135.713 C 88.913 132.614,88.014 127.834,83.322 125.562 C 81.458 124.660,71.928 124.027,69.400 124.638 M222.781 126.800 C 210.969 127.022,210.605 127.104,209.320 129.798 C 208.492 131.535,208.963 133.387,210.532 134.559 C 212.094 135.726,235.417 136.084,238.294 134.985 C 243.863 132.858,241.759 127.253,235.200 126.741 C 234.210 126.663,228.622 126.690,222.781 126.800 M148.865 127.659 C 144.837 129.653,145.303 134.043,149.668 135.218 C 150.610 135.472,158.183 135.581,169.959 135.511 L 188.748 135.400 189.974 134.225 C 192.067 132.219,191.393 128.752,188.657 127.454 C 186.230 126.302,151.242 126.483,148.865 127.659 M176.200 152.197 C 175.980 152.270,175.319 152.436,174.731 152.565 C 170.340 153.529,169.980 157.896,174.132 159.829 L 176.200 160.792 193.600 160.794 C 212.282 160.796,213.366 160.696,215.268 158.793 C 217.485 156.576,216.135 153.332,212.628 152.449 C 211.020 152.044,177.357 151.811,176.200 152.197 M67.000 156.735 C 60.868 159.617,61.927 167.415,68.640 168.808 C 71.506 169.403,80.748 169.110,82.978 168.354 C 88.379 166.520,88.999 160.197,84.062 157.294 C 81.543 155.814,69.781 155.428,67.000 156.735 M67.534 187.830 C 61.621 189.650,61.626 198.347,67.540 199.990 C 69.538 200.545,80.021 200.507,82.286 199.937 C 87.728 198.566,89.273 191.654,84.751 188.908 C 81.912 187.184,71.708 186.545,67.534 187.830 M68.600 218.753 C 61.175 220.691,61.169 229.972,68.592 231.633 C 80.693 234.341,92.040 227.802,86.146 221.518 C 83.706 218.916,73.897 217.371,68.600 218.753 M68.216 250.165 C 61.391 252.071,61.319 260.579,68.110 262.596 C 77.414 265.359,88.151 261.563,87.495 255.743 C 86.935 250.773,76.671 247.804,68.216 250.165 M273.618 287.306 C 276.350 288.668,276.600 289.598,276.600 298.400 C 276.600 308.932,275.517 311.443,270.308 312.990 C 267.703 313.764,64.745 313.932,60.590 313.164 C 45.006 310.283,46.323 288.905,62.210 286.856 C 68.234 286.080,272.026 286.514,273.618 287.306 M322.441 363.714 C 325.884 366.029,325.877 381.814,322.431 385.262 C 319.944 387.751,326.438 387.616,214.143 387.504 L 110.600 387.400 108.667 386.440 C 99.055 381.669,97.959 370.938,106.507 365.282 C 110.451 362.672,102.499 362.849,217.241 362.823 L 321.082 362.800 322.441 363.714 M344.698 376.880 C 344.626 378.926,344.566 377.360,344.565 373.400 C 344.565 369.440,344.624 367.766,344.698 369.680 C 344.771 371.594,344.771 374.834,344.698 376.880 " stroke="none" fill="#9475a5" fill-rule="evenodd"></path><path id="path1" d="M304.400 99.457 C 302.117 99.737,300.804 100.436,300.081 101.756 C 299.447 102.913,299.386 108.923,299.200 188.000 L 299.000 273.000 297.738 275.400 C 295.802 279.080,294.255 280.986,291.352 283.267 C 287.507 286.290,287.489 286.352,287.167 298.400 C 286.878 309.236,286.701 310.290,284.421 314.759 C 282.647 318.236,278.488 321.884,274.849 323.155 C 273.177 323.738,264.850 323.819,187.982 324.000 C 106.496 324.192,102.918 324.230,101.849 324.931 C 99.793 326.278,99.492 327.749,99.293 337.400 C 98.985 352.322,99.964 354.240,106.800 352.103 C 108.851 351.462,116.509 351.401,220.028 351.208 L 331.057 351.000 333.427 349.788 C 335.256 348.852,336.027 348.167,336.799 346.788 L 337.800 345.000 337.800 225.200 L 337.800 105.400 336.777 103.412 C 335.982 101.866,335.317 101.199,333.788 100.412 L 331.822 99.400 318.811 99.343 C 311.655 99.311,305.170 99.362,304.400 99.457 M110.748 363.538 C 98.462 366.745,97.190 380.743,108.667 386.440 L 110.600 387.400 214.143 387.504 C 288.802 387.579,318.145 387.484,319.329 387.165 C 323.618 386.010,324.813 383.010,324.777 373.480 C 324.752 366.513,324.397 365.029,322.441 363.714 L 321.082 362.800 217.241 362.823 C 120.125 362.845,113.228 362.891,110.748 363.538 " stroke="none" fill="#a0c4e1" fill-rule="evenodd"></path><path id="path2" d="M115.732 5.900 C 146.715 5.957,197.295 5.957,228.132 5.900 C 258.970 5.843,233.620 5.797,171.800 5.797 C 109.980 5.797,84.750 5.843,115.732 5.900 M110.777 26.777 C 105.588 28.363,105.326 32.374,110.071 37.567 C 113.617 41.447,113.675 41.782,113.525 57.289 C 113.381 72.132,113.481 71.687,109.313 76.057 C 105.444 80.113,105.523 83.477,109.575 87.239 C 113.839 91.196,113.372 80.288,113.600 181.400 C 113.824 281.064,113.528 272.284,116.702 273.203 C 117.762 273.509,142.088 273.601,199.834 273.518 L 281.468 273.400 283.120 272.255 C 286.772 269.724,286.400 283.560,286.400 150.371 C 286.400 74.889,286.260 32.507,286.008 31.627 C 285.562 30.072,283.964 28.241,282.200 27.264 C 280.899 26.544,113.098 26.067,110.777 26.777 M306.187 54.800 C 306.187 67.010,306.238 72.005,306.300 65.900 C 306.362 59.795,306.362 49.805,306.300 43.700 C 306.238 37.595,306.187 42.590,306.187 54.800 M357.397 225.000 C 357.397 287.920,357.443 313.600,357.500 282.068 C 357.556 250.535,357.556 199.055,357.500 167.668 C 357.443 136.280,357.397 162.080,357.397 225.000 M190.400 124.616 C 195.928 127.835,195.588 134.992,189.765 137.989 L 187.800 139.000 169.869 139.119 C 150.512 139.248,149.433 139.155,146.384 137.101 C 141.226 133.625,142.412 126.469,148.499 124.344 C 151.873 123.167,188.318 123.403,190.400 124.616 M240.250 124.682 C 246.154 127.841,246.181 134.455,240.303 137.643 L 237.800 139.000 225.200 139.000 L 212.600 139.000 210.280 137.861 C 203.949 134.752,204.534 125.980,211.200 124.056 C 214.278 123.167,238.390 123.687,240.250 124.682 M214.193 149.371 C 221.485 152.418,221.623 160.110,214.443 163.306 C 211.581 164.580,175.703 164.509,173.050 163.224 C 165.976 159.800,166.163 152.404,173.400 149.403 C 176.042 148.307,211.581 148.280,214.193 149.371 M61.553 291.352 C 52.403 294.622,51.289 304.413,59.600 308.512 L 61.400 309.400 164.302 309.505 C 279.282 309.621,269.367 309.881,270.804 306.715 C 271.468 305.253,271.584 304.075,271.591 298.729 L 271.600 292.458 270.546 291.629 L 269.492 290.800 166.246 290.818 C 82.874 290.832,62.721 290.935,61.553 291.352 M344.565 373.400 C 344.566 377.360,344.626 378.926,344.698 376.880 C 344.771 374.834,344.771 371.594,344.698 369.680 C 344.624 367.766,344.565 369.440,344.565 373.400 M336.575 398.900 L 335.400 400.200 336.700 399.025 C 337.415 398.379,338.000 397.794,338.000 397.725 C 338.000 397.416,337.670 397.688,336.575 398.900 " stroke="none" fill="#faf0d9" fill-rule="evenodd"></path><path id="path3" d="M108.142 23.613 C 107.231 23.795,105.521 24.264,104.342 24.655 C 102.437 25.288,99.897 25.391,81.400 25.583 L 60.600 25.800 58.352 26.854 C 55.137 28.362,53.004 30.442,51.917 33.131 L 51.000 35.400 51.000 154.735 L 51.000 274.069 52.122 275.035 C 53.445 276.172,54.782 276.240,59.400 275.406 C 61.843 274.965,66.505 274.825,79.113 274.814 C 96.870 274.799,97.743 274.707,98.868 272.734 C 99.305 271.967,99.436 255.823,99.600 182.600 L 99.800 93.400 100.646 91.571 C 101.996 88.653,104.720 88.055,107.881 89.983 C 110.854 91.797,110.577 82.962,110.800 183.000 C 111.022 282.346,110.784 274.122,113.491 275.896 C 115.213 277.025,281.425 276.985,283.697 275.856 C 286.048 274.687,288.220 272.262,288.846 270.107 C 289.464 267.981,289.705 33.631,289.093 30.757 C 288.587 28.382,286.634 25.857,284.307 24.567 L 282.200 23.400 196.000 23.342 C 148.590 23.309,109.054 23.432,108.142 23.613 M282.200 27.264 C 283.964 28.241,285.562 30.072,286.008 31.627 C 286.260 32.507,286.400 74.889,286.400 150.371 C 286.400 283.560,286.772 269.724,283.120 272.255 L 281.468 273.400 199.834 273.518 C 142.088 273.601,117.762 273.509,116.702 273.203 C 113.528 272.284,113.824 281.064,113.600 181.400 C 113.372 80.288,113.839 91.196,109.575 87.239 C 105.523 83.477,105.444 80.113,109.313 76.057 C 113.481 71.687,113.381 72.132,113.525 57.289 C 113.675 41.782,113.617 41.447,110.071 37.567 C 105.326 32.374,105.588 28.363,110.777 26.777 C 113.098 26.067,280.899 26.544,282.200 27.264 M82.511 31.587 C 88.593 33.426,89.141 40.281,83.450 43.314 C 81.105 44.564,69.112 44.651,66.664 43.437 C 62.284 41.264,61.827 34.862,65.874 32.356 C 68.344 30.827,78.453 30.359,82.511 31.587 M107.167 39.859 C 110.692 41.615,110.781 42.004,110.791 55.723 C 110.801 68.944,110.625 70.142,108.378 72.173 C 105.477 74.793,102.270 74.305,100.600 70.989 C 99.467 68.739,99.363 44.364,100.476 41.909 C 101.819 38.946,103.997 38.279,107.167 39.859 M83.415 63.409 C 89.680 66.538,88.583 73.437,81.540 75.207 C 78.135 76.063,68.095 75.583,66.320 74.480 C 62.289 71.974,61.957 66.571,65.667 63.870 C 68.822 61.573,79.200 61.303,83.415 63.409 M83.643 94.670 C 89.263 97.827,88.861 103.219,82.800 105.966 C 80.740 106.900,71.140 107.168,68.272 106.371 C 62.351 104.727,61.212 97.283,66.466 94.566 C 70.057 92.709,80.262 92.771,83.643 94.670 M148.499 124.344 C 142.412 126.469,141.226 133.625,146.384 137.101 C 149.433 139.155,150.512 139.248,169.869 139.119 L 187.800 139.000 189.765 137.989 C 195.588 134.992,195.928 127.835,190.400 124.616 C 188.318 123.403,151.873 123.167,148.499 124.344 M211.200 124.056 C 204.534 125.980,203.949 134.752,210.280 137.861 L 212.600 139.000 225.200 139.000 L 237.800 139.000 240.303 137.643 C 246.181 134.455,246.154 127.841,240.250 124.682 C 238.390 123.687,214.278 123.167,211.200 124.056 M83.322 125.562 C 89.338 128.474,88.761 134.916,82.262 137.398 C 79.822 138.329,68.841 138.138,66.992 137.132 C 61.596 134.196,62.067 126.223,67.707 125.021 C 68.198 124.917,68.960 124.744,69.400 124.638 C 71.928 124.027,81.458 124.660,83.322 125.562 M238.711 127.681 C 242.642 129.520,242.420 133.410,238.294 134.985 C 235.417 136.084,212.094 135.726,210.532 134.559 C 208.222 132.833,208.489 129.410,211.065 127.720 C 213.226 126.302,235.697 126.272,238.711 127.681 M188.657 127.454 C 191.393 128.752,192.067 132.219,189.974 134.225 L 188.748 135.400 169.959 135.511 C 158.183 135.581,150.610 135.472,149.668 135.218 C 145.303 134.043,144.837 129.653,148.865 127.659 C 151.242 126.483,186.230 126.302,188.657 127.454 M176.200 148.836 C 166.824 149.940,164.791 159.226,173.050 163.224 C 175.703 164.509,211.581 164.580,214.443 163.306 C 221.623 160.110,221.485 152.418,214.193 149.371 C 212.576 148.696,181.149 148.253,176.200 148.836 M212.628 152.449 C 216.135 153.332,217.485 156.576,215.268 158.793 C 213.366 160.696,212.282 160.796,193.600 160.794 L 176.200 160.792 174.132 159.829 C 169.980 157.896,170.340 153.529,174.731 152.565 C 175.319 152.436,175.980 152.270,176.200 152.197 C 177.357 151.811,211.020 152.044,212.628 152.449 M84.062 157.294 C 88.999 160.197,88.379 166.520,82.978 168.354 C 80.748 169.110,71.506 169.403,68.640 168.808 C 61.927 167.415,60.868 159.617,67.000 156.735 C 69.781 155.428,81.543 155.814,84.062 157.294 M81.280 187.644 C 88.974 189.254,89.696 198.071,82.286 199.937 C 80.021 200.507,69.538 200.545,67.540 199.990 C 61.626 198.347,61.621 189.650,67.534 187.830 C 69.818 187.127,78.264 187.012,81.280 187.644 M83.200 219.465 C 88.687 221.998,88.996 227.390,83.838 230.579 C 79.951 232.982,67.844 232.529,65.285 229.886 C 61.159 225.622,62.750 220.280,68.600 218.753 C 71.187 218.078,81.259 218.569,83.200 219.465 M83.200 250.666 C 89.819 253.717,88.556 261.068,81.118 262.784 C 68.778 265.631,58.469 259.041,64.742 252.316 C 67.385 249.482,78.480 248.491,83.200 250.666 M62.210 286.856 C 46.323 288.905,45.006 310.283,60.590 313.164 C 64.745 313.932,267.703 313.764,270.308 312.990 C 275.517 311.443,276.600 308.932,276.600 298.400 C 276.600 289.598,276.350 288.668,273.618 287.306 C 272.026 286.514,68.234 286.080,62.210 286.856 M270.546 291.629 L 271.600 292.458 271.591 298.729 C 271.584 304.075,271.468 305.253,270.804 306.715 C 269.367 309.881,279.282 309.621,164.302 309.505 L 61.400 309.400 59.600 308.512 C 51.289 304.413,52.403 294.622,61.553 291.352 C 62.721 290.935,82.874 290.832,166.246 290.818 L 269.492 290.800 270.546 291.629 " stroke="none" fill="#cda4ab" fill-rule="evenodd"></path></g></svg>